<?xml version="1.0" encoding="utf-8"?>
<!-- Generator: Adobe Illustrator 19.0.0, SVG Export Plug-In . SVG Version: 6.00 Build 0)  -->
<svg version="1.1" id="图层_1" xmlns="http://www.w3.org/2000/svg" xmlns:xlink="http://www.w3.org/1999/xlink" x="0px" y="0px"
	 viewBox="0 0 400 300" style="enable-background:new 0 0 400 300;" xml:space="preserve">
<style type="text/css">
	.st0{fill:none;stroke:#231815;stroke-miterlimit:10;stroke-dasharray:2,2;}
	.st1{fill:#231815;stroke:#231815;stroke-miterlimit:10;stroke-dasharray:2,2;}
</style>
<g id="XMLID_2_">
</g>
<line id="XMLID_4_" class="st0" x1="297" y1="64.2" x2="297" y2="94.2"/>
<g id="XMLID_1_">
	<path id="XMLID_202_" d="M301.1,49.4c1,1.1,1.5,2.5,1.5,4.2c0,1.7-0.5,3.1-1.4,4.2c-1,1.2-2.4,1.8-4.1,1.8c-1.7,0-3.1-0.6-4.1-1.8
		c-1-1.1-1.5-2.5-1.5-4.2c0-1.7,0.5-3.1,1.5-4.2c1-1.2,2.4-1.8,4.1-1.8C298.7,47.6,300.1,48.2,301.1,49.4z M294.2,50.5
		c-0.6,0.8-0.9,1.9-0.9,3.1c0,1.3,0.3,2.3,0.9,3.1c0.7,0.9,1.6,1.4,2.8,1.4c1.2,0,2.1-0.5,2.8-1.4c0.6-0.8,0.9-1.9,0.9-3.1
		c0-1.3-0.3-2.3-0.9-3.1c-0.7-0.9-1.7-1.4-2.8-1.4C295.8,49.1,294.8,49.6,294.2,50.5z"/>
</g>
<g id="XMLID_3_">
	<path id="XMLID_200_" d="M301.8,104.2v7H300v-6.9c0-2.2-1-3.3-3-3.3c-0.8,0-1.5,0.3-2,0.9c-0.6,0.6-0.9,1.4-1,2.5v6.9h-1.8V99.8
		h1.8v1.7c0.4-0.6,0.9-1.1,1.5-1.5c0.6-0.4,1.3-0.5,2-0.5C300.4,99.5,301.8,101.1,301.8,104.2z"/>
</g>
<line id="XMLID_5_" class="st1" x1="287.4" y1="64.2" x2="68.9" y2="94.2"/>
<g id="XMLID_6_">
	<path id="XMLID_188_" d="M168.5,68.5l1,7.2l-0.8,0.1l-1-7.2L168.5,68.5z"/>
	<path id="XMLID_190_" d="M174.3,70.6c0.4,0.4,0.7,1.1,0.9,2l-4,0.6c0.1,0.6,0.3,1,0.6,1.3s0.7,0.4,1.2,0.3c0.4-0.1,0.7-0.2,1-0.5
		c0.2-0.2,0.3-0.5,0.4-0.9l0.8-0.1c-0.1,0.5-0.2,0.9-0.5,1.3c-0.4,0.4-0.9,0.7-1.6,0.8c-0.7,0.1-1.4-0.1-1.9-0.5
		c-0.5-0.4-0.8-1.1-0.9-1.9c-0.1-0.8,0-1.4,0.4-2c0.4-0.6,0.9-0.9,1.7-1C173.1,69.9,173.8,70.1,174.3,70.6z M171.4,71.2
		c-0.2,0.3-0.3,0.8-0.3,1.3l3.2-0.4c-0.2-1.1-0.9-1.6-1.8-1.4C172,70.7,171.6,70.9,171.4,71.2z"/>
	<path id="XMLID_193_" d="M177.5,66.3l0.1,0.7l-1.7,0.2l1.1,7.9l1.7-0.2l0.1,0.7l-2.4,0.3l-1.3-9.2L177.5,66.3z"/>
	<path id="XMLID_195_" d="M183.2,67.7c0.5,0.6,0.8,1.4,0.9,2.5s0.1,1.9-0.2,2.6c-0.3,0.8-0.9,1.3-1.8,1.4c-0.9,0.1-1.5-0.2-2.1-0.9
		c-0.5-0.6-0.8-1.4-0.9-2.5s-0.1-1.9,0.2-2.6c0.3-0.8,0.9-1.3,1.8-1.4C181.9,66.7,182.6,67,183.2,67.7z M180,68.7
		c-0.1,0.5-0.1,1.2,0,2c0.1,0.8,0.3,1.5,0.6,1.9c0.4,0.6,0.9,0.9,1.5,0.8s1-0.5,1.2-1.2c0.1-0.5,0.2-1.2,0-2
		c-0.1-0.8-0.3-1.5-0.6-1.9c-0.4-0.6-0.9-0.9-1.5-0.8C180.6,67.6,180.1,68,180,68.7z"/>
	<path id="XMLID_198_" d="M186.8,65l1.3,9.2l-2.4,0.3l-0.1-0.7l1.7-0.2l-1.1-7.9l-1.7,0.2l-0.1-0.7L186.8,65z"/>
</g>
<g id="XMLID_7_">
	<path id="XMLID_182_" d="M303.7,77.3c0.4,0.5,0.6,1.2,0.6,2.1h-4.1c0,0.6,0.2,1,0.5,1.3s0.7,0.5,1.2,0.5c0.4,0,0.8-0.1,1-0.3
		c0.2-0.2,0.4-0.4,0.5-0.8h0.8c-0.1,0.5-0.3,0.9-0.7,1.2c-0.4,0.4-1,0.6-1.6,0.6c-0.7,0-1.3-0.2-1.8-0.7c-0.5-0.5-0.7-1.2-0.7-2
		c0-0.8,0.2-1.4,0.6-1.9c0.4-0.5,1-0.8,1.8-0.8C302.6,76.5,303.2,76.7,303.7,77.3z M300.7,77.6c-0.3,0.3-0.4,0.7-0.5,1.2h3.2
		c-0.1-1.1-0.6-1.7-1.6-1.7C301.3,77.1,301,77.3,300.7,77.6z"/>
	<path id="XMLID_185_" d="M309.1,77.5v-0.8h0.8v7.1H309v-2.9c-0.4,0.7-1,1.1-1.7,1.1s-1.3-0.3-1.7-0.8c-0.4-0.5-0.6-1.1-0.6-1.9
		c0-0.8,0.2-1.4,0.6-1.9c0.4-0.6,1-0.8,1.8-0.8C308.1,76.5,308.7,76.8,309.1,77.5z M306.2,77.7c-0.2,0.4-0.4,0.8-0.4,1.5
		c0,0.6,0.1,1.1,0.4,1.5c0.3,0.4,0.7,0.6,1.3,0.6c0.5,0,0.8-0.2,1.1-0.5c0.3-0.4,0.4-0.8,0.4-1.4v-0.1c0-0.6-0.1-1.1-0.4-1.4
		c-0.3-0.4-0.7-0.6-1.2-0.6C306.9,77.1,306.5,77.3,306.2,77.7z"/>
</g>
<g id="XMLID_8_">
	<path id="XMLID_179_" d="M62.2,95.2v6.7c0.9-1.6,2.1-2.4,3.8-2.4c1.6,0,2.9,0.6,3.8,1.8c0.8,1.1,1.3,2.5,1.3,4.1
		c0,1.7-0.4,3.1-1.3,4.2c-0.9,1.2-2.2,1.8-3.9,1.8c-1.8,0-3-0.7-3.8-2.2v1.9h-1.7v-16H62.2z M63.1,102.2c-0.7,0.8-1,1.9-1,3.2v0.2
		c0,1.3,0.3,2.3,0.9,3.1c0.6,0.9,1.5,1.3,2.7,1.3c1.2,0,2.2-0.5,2.8-1.3c0.5-0.8,0.8-1.9,0.8-3.2s-0.3-2.4-0.9-3.2
		c-0.6-0.9-1.6-1.3-2.8-1.3C64.6,101,63.7,101.4,63.1,102.2z"/>
</g>
<line id="XMLID_10_" class="st0" x1="65.5" y1="117.8" x2="65.5" y2="147.8"/>
<g id="XMLID_9_">
	<path id="XMLID_173_" d="M72.2,130.9c0.4,0.5,0.6,1.2,0.6,2.1h-4.1c0,0.6,0.2,1,0.5,1.3s0.7,0.5,1.2,0.5c0.4,0,0.8-0.1,1-0.3
		c0.2-0.2,0.4-0.4,0.5-0.8h0.8c-0.1,0.5-0.3,0.9-0.7,1.2c-0.4,0.4-1,0.6-1.6,0.6c-0.7,0-1.3-0.2-1.8-0.7c-0.5-0.5-0.7-1.2-0.7-2
		c0-0.8,0.2-1.4,0.6-1.9c0.4-0.5,1-0.8,1.8-0.8C71.2,130,71.8,130.3,72.2,130.9z M69.2,131.2c-0.3,0.3-0.4,0.7-0.5,1.2H72
		c-0.1-1.1-0.6-1.7-1.6-1.7C69.9,130.7,69.5,130.9,69.2,131.2z"/>
	<path id="XMLID_176_" d="M77.6,131v-0.8h0.8v7.1h-0.8v-2.9c-0.4,0.7-1,1.1-1.7,1.1s-1.3-0.3-1.7-0.8c-0.4-0.5-0.6-1.1-0.6-1.9
		c0-0.8,0.2-1.4,0.6-1.9c0.4-0.6,1-0.8,1.8-0.8C76.7,130,77.2,130.4,77.6,131z M74.7,131.3c-0.2,0.4-0.4,0.8-0.4,1.5
		c0,0.6,0.1,1.1,0.4,1.5c0.3,0.4,0.7,0.6,1.3,0.6c0.5,0,0.8-0.2,1.1-0.5c0.3-0.4,0.4-0.8,0.4-1.4v-0.1c0-0.6-0.1-1.1-0.4-1.4
		c-0.3-0.4-0.7-0.6-1.2-0.6C75.4,130.7,75,130.9,74.7,131.3z"/>
</g>
<g id="XMLID_11_">
	<path id="XMLID_170_" d="M69.6,154.4c0.8,1.1,1.3,2.7,1.3,4.6h-9c0.1,1.3,0.4,2.3,1,3s1.5,1.1,2.6,1.1c0.9,0,1.7-0.2,2.3-0.7
		c0.5-0.4,0.9-1,1.1-1.8h1.8c-0.3,1.1-0.8,2-1.5,2.7c-0.9,0.8-2.2,1.3-3.6,1.3c-1.6,0-2.9-0.5-3.9-1.6c-1-1.1-1.5-2.6-1.5-4.4
		c0-1.7,0.5-3.1,1.4-4.2c1-1.2,2.3-1.8,3.9-1.8C67.3,152.6,68.7,153.2,69.6,154.4z M63.1,155c-0.6,0.7-1,1.5-1.1,2.7h7.1
		c-0.2-2.4-1.4-3.7-3.6-3.7C64.5,154,63.7,154.4,63.1,155z"/>
</g>
<line id="XMLID_12_" class="st0" x1="292.1" y1="64.2" x2="178.2" y2="97.5"/>
<g id="XMLID_13_">
	<path id="XMLID_167_" d="M178.1,103c0.7,0.7,1,1.8,1,3.1v7.3h-1.7v-1.9c-0.4,0.6-1,1.1-1.7,1.5c-0.8,0.5-1.8,0.7-2.8,0.7
		c-1.1,0-2-0.3-2.7-0.9c-0.7-0.6-1.1-1.4-1.1-2.3c0-1.3,0.5-2.3,1.6-2.9c0.9-0.6,2.2-0.9,4-1l2.7,0V106c0-1.9-1-2.9-3-2.9
		c-0.8,0-1.5,0.2-2,0.5c-0.6,0.4-1,0.9-1.1,1.6l-1.7-0.1c0.2-1.2,0.8-2.1,1.8-2.7c0.8-0.5,1.9-0.8,3.3-0.8
		C176.1,101.7,177.3,102.1,178.1,103z M174.7,108c-2.6,0-3.8,0.9-3.8,2.5c0,0.5,0.2,0.9,0.6,1.3c0.4,0.3,1,0.5,1.7,0.5
		c1.1,0,2-0.4,2.9-1.1c0.8-0.7,1.2-1.5,1.2-2.4v-1L174.7,108z"/>
</g>
<g id="XMLID_14_">
	<path id="XMLID_156_" d="M224.9,88l2,7l-0.8,0.2l-2-7L224.9,88z"/>
	<path id="XMLID_158_" d="M230.8,89.3c0.5,0.4,0.9,1,1.2,1.9l-3.9,1.1c0.2,0.5,0.5,0.9,0.8,1.2c0.4,0.2,0.8,0.3,1.2,0.1
		c0.4-0.1,0.7-0.3,0.9-0.6c0.2-0.2,0.2-0.5,0.3-0.9l0.8-0.2c0,0.5-0.1,1-0.3,1.4c-0.3,0.5-0.8,0.8-1.4,1c-0.7,0.2-1.4,0.1-1.9-0.2
		c-0.6-0.4-1-0.9-1.2-1.7c-0.2-0.7-0.2-1.4,0.1-2c0.3-0.6,0.8-1.1,1.5-1.3C229.6,88.7,230.3,88.8,230.8,89.3z M228.1,90.3
		c-0.2,0.4-0.2,0.8-0.1,1.3l3.1-0.9c-0.4-1-1.1-1.4-2-1.1C228.6,89.7,228.3,90,228.1,90.3z"/>
	<path id="XMLID_161_" d="M233.5,84.6l0.2,0.6l-1.6,0.5l2.2,7.7l1.6-0.5l0.2,0.6l-2.4,0.7l-2.6-9L233.5,84.6z"/>
	<path id="XMLID_163_" d="M237,84.7l2,6.9l-0.8,0.2l-1.7-5.9c-0.3,0.6-0.8,1-1.3,1.4l-0.2-0.8c0.3-0.2,0.6-0.4,0.8-0.7
		c0.3-0.3,0.5-0.6,0.6-0.9L237,84.7z"/>
	<path id="XMLID_165_" d="M240.5,82.5l2.6,9l-2.4,0.7l-0.2-0.6l1.6-0.5l-2.2-7.7l-1.6,0.5l-0.2-0.6L240.5,82.5z"/>
</g>
<line id="XMLID_17_" class="st0" x1="174.3" y1="119.9" x2="174.3" y2="149.9"/>
<g id="XMLID_16_">
	<path id="XMLID_150_" d="M181,133c0.4,0.5,0.6,1.2,0.6,2.1h-4.1c0,0.6,0.2,1,0.5,1.3s0.7,0.5,1.2,0.5c0.4,0,0.8-0.1,1-0.3
		c0.2-0.2,0.4-0.4,0.5-0.8h0.8c-0.1,0.5-0.3,0.9-0.7,1.2c-0.4,0.4-1,0.6-1.6,0.6c-0.7,0-1.3-0.2-1.8-0.7c-0.5-0.5-0.7-1.2-0.7-2
		c0-0.8,0.2-1.4,0.6-1.9c0.4-0.5,1-0.8,1.8-0.8C179.9,132.2,180.5,132.5,181,133z M178,133.3c-0.3,0.3-0.4,0.7-0.5,1.2h3.2
		c-0.1-1.1-0.6-1.7-1.6-1.7C178.6,132.9,178.3,133,178,133.3z"/>
	<path id="XMLID_153_" d="M186.4,133.2v-0.8h0.8v7.1h-0.8v-2.9c-0.4,0.7-1,1.1-1.7,1.1s-1.3-0.3-1.7-0.8c-0.4-0.5-0.6-1.1-0.6-1.9
		c0-0.8,0.2-1.4,0.6-1.9c0.4-0.6,1-0.8,1.8-0.8C185.4,132.2,186,132.5,186.4,133.2z M183.5,133.5c-0.2,0.4-0.4,0.8-0.4,1.5
		c0,0.6,0.1,1.1,0.4,1.5c0.3,0.4,0.7,0.6,1.3,0.6c0.5,0,0.8-0.2,1.1-0.5c0.3-0.4,0.4-0.8,0.4-1.4v-0.1c0-0.6-0.1-1.1-0.4-1.4
		c-0.3-0.4-0.7-0.6-1.2-0.6C184.2,132.9,183.8,133.1,183.5,133.5z"/>
</g>
<g id="XMLID_15_">
	<path id="XMLID_148_" d="M178.8,158.2h-1.7c-0.2-0.7-0.4-1.2-0.9-1.5c-0.5-0.4-1.2-0.5-2.1-0.5c-0.8,0-1.4,0.1-1.8,0.4
		c-0.5,0.3-0.7,0.7-0.7,1.2c0,0.5,0.3,0.9,1,1.2c0.4,0.2,1.2,0.4,2.4,0.7c1.4,0.3,2.3,0.7,2.9,1.1c0.9,0.6,1.4,1.3,1.4,2.3
		c0,2.3-1.6,3.5-4.8,3.5c-3,0-4.6-1.3-4.9-3.9h1.7c0.1,0.9,0.5,1.5,0.9,1.9c0.5,0.4,1.2,0.5,2.2,0.5c2,0,3.1-0.7,3.1-1.9
		c0-0.6-0.4-1.1-1.1-1.5c-0.4-0.2-1.2-0.4-2.4-0.7c-1.3-0.3-2.3-0.7-2.8-1c-0.9-0.5-1.3-1.3-1.3-2.2s0.4-1.7,1.3-2.3
		c0.8-0.6,1.8-0.9,3.1-0.9C176.9,154.7,178.5,155.9,178.8,158.2z"/>
</g>
<line id="XMLID_18_" class="st1" x1="184.4" y1="119.9" x2="229.9" y2="149.9"/>
<g id="XMLID_19_">
	<path id="XMLID_145_" d="M235.2,151.1c0.3,0.2,0.4,0.5,0.4,0.9c0,0.4-0.1,0.7-0.4,0.9c-0.3,0.2-0.6,0.4-0.9,0.4s-0.7-0.1-0.9-0.4
		c-0.3-0.3-0.4-0.6-0.4-0.9c0-0.4,0.1-0.7,0.4-0.9c0.3-0.3,0.6-0.4,0.9-0.4S235,150.8,235.2,151.1z M235.2,155v11.4h-1.8V155H235.2z
		"/>
</g>
<g id="XMLID_20_">
	<path id="XMLID_134_" d="M209.3,126.3l0.5-0.7l0.7,0.4l-2.7,4c-0.9,1.4-2,1.6-3.3,0.7c-0.6-0.4-0.9-0.8-1.1-1.2
		c-0.1-0.4-0.1-0.9,0.1-1.4l0.7,0.4c-0.1,0.3-0.2,0.6-0.1,0.9c0.1,0.3,0.3,0.5,0.7,0.8c0.9,0.6,1.6,0.4,2.3-0.6l0.5-0.8
		c-0.7,0.4-1.4,0.3-2-0.1c-0.6-0.4-0.9-0.9-1-1.6c-0.1-0.6,0.1-1.2,0.5-1.9c0.4-0.6,0.9-1,1.5-1.2c0.6-0.2,1.2-0.1,1.8,0.3
		C209.1,124.9,209.4,125.5,209.3,126.3z M206.9,124.9c-0.4,0.1-0.8,0.4-1.1,0.9c-0.3,0.4-0.5,0.9-0.4,1.3c0,0.5,0.2,0.9,0.7,1.2
		c0.4,0.3,0.9,0.4,1.3,0.2c0.4-0.1,0.8-0.4,1.1-0.9c0.3-0.5,0.5-0.9,0.4-1.4c0-0.5-0.3-0.9-0.7-1.1
		C207.8,124.8,207.3,124.7,206.9,124.9z"/>
	<path id="XMLID_137_" d="M212.7,127.5l1.1,0.7l-0.4,0.6l-1.1-0.7l-1.8,2.7c-0.1,0.2-0.2,0.3-0.1,0.4c0,0.1,0.1,0.2,0.2,0.3l0.5,0.4
		l-0.4,0.6l-0.6-0.4c-0.3-0.2-0.5-0.5-0.6-0.8c0-0.3,0.1-0.5,0.3-0.9l1.8-2.7l-0.9-0.6l0.4-0.6l0.9,0.6l0.8-1.1l0.8,0.2L212.7,127.5
		z"/>
	<path id="XMLID_139_" d="M218.1,127.4l-0.4,0.6l-1.4-1l-4.5,6.6l1.4,1l-0.4,0.6l-2-1.4l5.2-7.7L218.1,127.4z"/>
	<path id="XMLID_141_" d="M220.2,130.3l-4,5.9l-0.7-0.5l3.4-5.1c-0.6,0.1-1.3,0.1-1.9-0.1l0.5-0.7c0.3,0.1,0.7,0.2,1.1,0.2
		c0.4,0,0.8,0,1.1-0.1L220.2,130.3z"/>
	<path id="XMLID_143_" d="M224.2,131.5l-5.2,7.7l-2-1.4l0.4-0.6l1.4,1l4.5-6.6l-1.4-1l0.4-0.6L224.2,131.5z"/>
</g>
<line id="XMLID_23_" class="st1" x1="302.9" y1="117.8" x2="348.3" y2="147.8"/>
<g id="XMLID_22_">
	<path id="XMLID_132_" d="M354.5,153.5v1.8c-0.6-0.2-1.1-0.2-1.7-0.2c-0.9,0-1.6,0.4-2.2,1.2c-0.6,0.7-0.9,1.7-0.9,2.7v6H348v-11.4
		h1.7v2c0.3-0.7,0.7-1.2,1.2-1.6c0.6-0.5,1.3-0.7,2.1-0.7C353.6,153.2,354.1,153.3,354.5,153.5z"/>
</g>
<g id="XMLID_21_">
	<path id="XMLID_120_" d="M326.8,121.8l0.5-0.7l0.7,0.4l-2.7,4c-0.9,1.4-2,1.6-3.3,0.7c-0.6-0.4-0.9-0.8-1.1-1.2
		c-0.1-0.4-0.1-0.9,0.1-1.4l0.7,0.4c-0.1,0.3-0.2,0.6-0.1,0.9c0.1,0.3,0.3,0.5,0.7,0.8c0.9,0.6,1.6,0.4,2.3-0.5l0.5-0.8
		c-0.7,0.4-1.4,0.3-2-0.1c-0.6-0.4-0.9-0.9-1-1.6c-0.1-0.6,0.1-1.2,0.5-1.9c0.4-0.6,0.9-1,1.5-1.2c0.6-0.2,1.2-0.1,1.8,0.3
		C326.6,120.4,326.9,121,326.8,121.8z M324.4,120.4c-0.4,0.1-0.8,0.4-1.1,0.9c-0.3,0.4-0.5,0.9-0.4,1.3c0,0.5,0.2,0.9,0.7,1.2
		c0.4,0.3,0.9,0.4,1.3,0.2c0.4-0.1,0.8-0.4,1.1-0.9c0.3-0.5,0.5-0.9,0.4-1.4c0-0.5-0.3-0.9-0.7-1.1
		C325.2,120.3,324.8,120.2,324.4,120.4z"/>
	<path id="XMLID_123_" d="M330.1,123l1.1,0.7l-0.4,0.6l-1.1-0.7l-1.8,2.7c-0.1,0.2-0.2,0.3-0.1,0.4c0,0.1,0.1,0.2,0.2,0.3l0.5,0.4
		l-0.4,0.6l-0.6-0.4c-0.3-0.2-0.5-0.5-0.6-0.8c0-0.3,0.1-0.5,0.3-0.9l1.8-2.7l-0.9-0.6l0.4-0.6l0.9,0.6l0.8-1.1l0.8,0.2L330.1,123z"
		/>
	<path id="XMLID_125_" d="M335.6,122.9l-0.4,0.6l-1.4-1l-4.5,6.6l1.4,1l-0.4,0.6l-2-1.4l5.2-7.7L335.6,122.9z"/>
	<path id="XMLID_127_" d="M338.8,127.7c0,0.7-0.4,1.6-1,2.5c-0.6,0.9-1.2,1.5-1.9,1.8c-0.8,0.4-1.5,0.3-2.2-0.1c-0.7-0.5-1-1.2-1-2
		c0-0.7,0.4-1.6,1-2.5c0.6-0.9,1.2-1.5,1.9-1.8c0.8-0.4,1.5-0.3,2.2,0.1C338.6,126.1,338.9,126.8,338.8,127.7z M335.7,126.3
		c-0.4,0.3-0.9,0.8-1.4,1.5c-0.5,0.7-0.8,1.3-0.9,1.8c-0.2,0.7,0,1.3,0.6,1.6c0.5,0.4,1.1,0.3,1.7-0.1c0.4-0.3,0.9-0.8,1.4-1.5
		c0.5-0.7,0.8-1.3,0.9-1.8c0.2-0.7,0-1.3-0.6-1.6S336.4,125.9,335.7,126.3z"/>
	<path id="XMLID_130_" d="M343.3,128.1l-5.2,7.7l-2-1.4l0.4-0.6l1.4,1l4.5-6.6l-1.4-1l0.4-0.6L343.3,128.1z"/>
</g>
<line id="XMLID_26_" class="st0" x1="234.3" y1="173" x2="234.3" y2="200"/>
<g id="XMLID_25_">
	<path id="XMLID_114_" d="M241,183.1c0.4,0.5,0.6,1.2,0.6,2.1h-4.1c0,0.6,0.2,1,0.5,1.3c0.3,0.3,0.7,0.5,1.2,0.5
		c0.4,0,0.8-0.1,1-0.3c0.2-0.2,0.4-0.4,0.5-0.8h0.8c-0.1,0.5-0.3,0.9-0.7,1.2c-0.4,0.4-1,0.6-1.6,0.6c-0.7,0-1.3-0.2-1.8-0.7
		c-0.5-0.5-0.7-1.2-0.7-2c0-0.8,0.2-1.4,0.6-1.9c0.4-0.5,1-0.8,1.8-0.8C239.9,182.3,240.5,182.6,241,183.1z M238,183.4
		c-0.3,0.3-0.4,0.7-0.5,1.2h3.2c-0.1-1.1-0.6-1.7-1.6-1.7C238.6,183,238.3,183.1,238,183.4z"/>
	<path id="XMLID_117_" d="M246.4,183.3v-0.8h0.8v7.1h-0.8v-2.9c-0.4,0.7-1,1.1-1.7,1.1s-1.3-0.3-1.7-0.8c-0.4-0.5-0.6-1.1-0.6-1.9
		c0-0.8,0.2-1.4,0.6-1.9c0.4-0.6,1-0.8,1.8-0.8C245.4,182.3,246,182.6,246.4,183.3z M243.5,183.6c-0.2,0.4-0.4,0.8-0.4,1.5
		c0,0.6,0.1,1.1,0.4,1.5c0.3,0.4,0.7,0.6,1.3,0.6c0.5,0,0.8-0.2,1.1-0.5c0.3-0.4,0.4-0.8,0.4-1.4V185c0-0.6-0.1-1.1-0.4-1.4
		c-0.3-0.4-0.7-0.6-1.2-0.6C244.2,182.9,243.8,183.1,243.5,183.6z"/>
</g>
<g id="XMLID_24_">
	<path id="XMLID_112_" d="M239.1,209.5v7h-1.8v-6.9c0-2.2-1-3.3-3-3.3c-0.8,0-1.5,0.3-2,0.9c-0.6,0.6-0.9,1.4-1,2.5v6.9h-1.8v-11.4
		h1.8v1.7c0.4-0.6,0.9-1.1,1.5-1.5c0.6-0.4,1.3-0.5,2-0.5C237.7,204.8,239.1,206.4,239.1,209.5z"/>
</g>
<line id="XMLID_29_" class="st1" x1="242" y1="222.3" x2="287.5" y2="252.3"/>
<g id="XMLID_28_">
	<path id="XMLID_110_" d="M293.3,259.5h2.8v1.5h-2.8v7.2c0,0.4,0.1,0.7,0.2,0.9c0.2,0.2,0.4,0.3,0.8,0.3h1.5v1.5h-1.7
		c-0.9,0-1.6-0.2-2-0.7c-0.4-0.4-0.5-1.1-0.5-1.9V261h-2.3v-1.5h2.3v-2.9l1.7-0.7V259.5z"/>
</g>
<g id="XMLID_27_">
	<path id="XMLID_98_" d="M253.1,236.7l0.5-0.7l0.7,0.4l-2.7,4c-0.9,1.4-2,1.6-3.3,0.7c-0.6-0.4-0.9-0.8-1.1-1.2
		c-0.1-0.4-0.1-0.9,0.1-1.4l0.7,0.4c-0.1,0.3-0.2,0.6-0.1,0.9c0.1,0.3,0.3,0.5,0.7,0.8c0.9,0.6,1.6,0.4,2.3-0.5l0.5-0.8
		c-0.7,0.4-1.4,0.3-2-0.1c-0.6-0.4-0.9-0.9-1-1.6c-0.1-0.6,0.1-1.2,0.5-1.9c0.4-0.6,0.9-1,1.5-1.2c0.6-0.2,1.2-0.1,1.8,0.3
		C252.9,235.3,253.2,235.9,253.1,236.7z M250.7,235.2c-0.4,0.1-0.8,0.4-1.1,0.9c-0.3,0.4-0.5,0.9-0.4,1.3c0,0.5,0.2,0.9,0.7,1.2
		c0.4,0.3,0.9,0.4,1.3,0.2c0.4-0.1,0.8-0.4,1.1-0.9c0.3-0.5,0.5-0.9,0.4-1.4c0-0.5-0.3-0.9-0.7-1.1
		C251.6,235.1,251.2,235.1,250.7,235.2z"/>
	<path id="XMLID_101_" d="M256.5,237.8l1.1,0.7l-0.4,0.6l-1.1-0.7l-1.8,2.7c-0.1,0.2-0.2,0.3-0.1,0.4c0,0.1,0.1,0.2,0.2,0.3l0.5,0.4
		l-0.4,0.6l-0.6-0.4c-0.3-0.2-0.5-0.5-0.6-0.8c0-0.3,0.1-0.5,0.3-0.9l1.8-2.7l-0.9-0.6l0.4-0.6l0.9,0.6l0.8-1.1l0.8,0.2L256.5,237.8
		z"/>
	<path id="XMLID_103_" d="M261.9,237.8l-0.4,0.6l-1.4-1l-4.5,6.6l1.4,1l-0.4,0.6l-2-1.4l5.2-7.7L261.9,237.8z"/>
	<path id="XMLID_105_" d="M265.1,242.5c0,0.7-0.4,1.6-1,2.5c-0.6,0.9-1.2,1.5-1.9,1.8c-0.8,0.4-1.5,0.3-2.2-0.1c-0.7-0.5-1-1.2-1-2
		c0-0.7,0.4-1.6,1-2.5c0.6-0.9,1.2-1.5,1.9-1.8c0.8-0.4,1.5-0.3,2.2,0.1C264.9,241,265.2,241.6,265.1,242.5z M262.1,241.2
		c-0.4,0.3-0.9,0.8-1.4,1.5c-0.5,0.7-0.8,1.3-0.9,1.8c-0.1,0.7,0,1.3,0.6,1.6c0.5,0.4,1.1,0.3,1.7-0.1c0.4-0.3,0.9-0.8,1.4-1.5
		c0.5-0.7,0.8-1.3,0.9-1.8c0.2-0.7,0-1.3-0.6-1.6C263.3,240.7,262.7,240.8,262.1,241.2z"/>
	<path id="XMLID_108_" d="M269.6,243l-5.2,7.7l-2-1.4l0.4-0.6l1.4,1l4.5-6.6l-1.4-1l0.4-0.6L269.6,243z"/>
</g>
<line id="XMLID_32_" class="st1" x1="251.5" y1="222.3" x2="343" y2="252.3"/>
<g id="XMLID_31_">
	<path id="XMLID_96_" d="M352.8,262.7h-1.7c-0.2-0.7-0.4-1.2-0.9-1.5c-0.5-0.4-1.2-0.5-2.1-0.5c-0.8,0-1.4,0.1-1.8,0.4
		c-0.5,0.3-0.7,0.7-0.7,1.2c0,0.5,0.3,0.9,1,1.2c0.4,0.2,1.2,0.4,2.4,0.7c1.4,0.3,2.3,0.7,2.9,1.1c0.9,0.6,1.4,1.3,1.4,2.3
		c0,2.3-1.6,3.5-4.8,3.5c-3,0-4.6-1.3-4.9-3.9h1.7c0.1,0.9,0.5,1.5,0.9,1.9c0.5,0.4,1.2,0.5,2.2,0.5c2,0,3.1-0.7,3.1-1.9
		c0-0.6-0.4-1.1-1.1-1.5c-0.4-0.2-1.2-0.4-2.4-0.7c-1.3-0.3-2.3-0.7-2.8-1c-0.9-0.5-1.3-1.3-1.3-2.2s0.4-1.7,1.3-2.3
		c0.8-0.6,1.8-0.9,3.1-0.9C351,259.2,352.5,260.4,352.8,262.7z"/>
</g>
<g id="XMLID_30_">
	<path id="XMLID_85_" d="M293.4,227l0.3-0.8l0.8,0.3l-1.5,4.6c-0.5,1.6-1.5,2.1-3,1.6c-0.7-0.2-1.1-0.5-1.4-0.9
		c-0.3-0.4-0.3-0.9-0.2-1.4l0.8,0.3c-0.1,0.4,0,0.6,0.2,0.9c0.2,0.2,0.5,0.4,0.9,0.6c1,0.3,1.7,0,2-1.1l0.3-0.9
		c-0.6,0.5-1.2,0.7-2,0.4c-0.7-0.2-1.1-0.6-1.4-1.2c-0.2-0.6-0.2-1.2,0-1.9c0.2-0.7,0.6-1.2,1.2-1.6c0.6-0.3,1.2-0.4,1.9-0.2
		C292.8,225.7,293.2,226.2,293.4,227z M290.6,226.2c-0.4,0.2-0.7,0.6-0.8,1.2c-0.2,0.5-0.2,1-0.1,1.4c0.1,0.4,0.5,0.8,1,0.9
		c0.5,0.2,0.9,0.1,1.3-0.1c0.4-0.2,0.7-0.6,0.8-1.2c0.2-0.5,0.2-1,0-1.5c-0.2-0.5-0.5-0.8-1-0.9C291.5,225.9,291,226,290.6,226.2z"
		/>
	<path id="XMLID_88_" d="M296.9,227.2l1.2,0.4l-0.2,0.6l-1.2-0.4l-1.1,3.1c-0.1,0.2-0.1,0.3,0,0.4c0,0.1,0.1,0.2,0.3,0.2l0.6,0.2
		l-0.2,0.6l-0.7-0.2c-0.4-0.1-0.7-0.3-0.8-0.6c-0.1-0.2-0.1-0.5,0-0.9l1.1-3.1l-1-0.3l0.2-0.6l1,0.3l0.4-1.3l0.9-0.1L296.9,227.2z"
		/>
	<path id="XMLID_90_" d="M302.1,225.7l-0.2,0.6l-1.6-0.5l-2.6,7.6l1.6,0.5l-0.2,0.6l-2.3-0.8l3-8.8L302.1,225.7z"/>
	<path id="XMLID_92_" d="M304.9,227.9l-2.3,6.8l-0.8-0.3l2-5.8c-0.6,0.3-1.2,0.4-1.9,0.4l0.3-0.8c0.3,0,0.7,0,1.1-0.1
		c0.4-0.1,0.7-0.2,1-0.4L304.9,227.9z"/>
	<path id="XMLID_94_" d="M309,228.1l-3,8.8l-2.3-0.8l0.2-0.6l1.6,0.5l2.6-7.6l-1.6-0.5l0.2-0.6L309,228.1z"/>
</g>
<line id="XMLID_33_" class="st1" x1="297.3" y1="117.8" x2="280.7" y2="147.8"/>
<g id="XMLID_34_">
	<path id="XMLID_83_" d="M284.7,148.5v1.5h-2c-0.5,0-0.9,0.1-1.1,0.4c-0.2,0.2-0.3,0.6-0.3,1.2v1.3h3.2v1.5h-3.2v9.9h-1.8v-9.9h-2.9
		v-1.5h2.9v-1.3c0-1,0.2-1.7,0.7-2.2c0.5-0.6,1.3-0.8,2.2-0.8H284.7z"/>
</g>
<g id="XMLID_35_">
	<path id="XMLID_71_" d="M273.2,135.7l6.1,3.9l-0.4,0.7l-6.1-3.9L273.2,135.7z"/>
	<path id="XMLID_73_" d="M278.5,132.6c0.6-0.1,1.3,0.2,2.1,0.6l-2.2,3.4c0.5,0.3,1,0.4,1.4,0.3c0.4-0.1,0.8-0.3,1-0.7
		c0.2-0.4,0.3-0.7,0.3-1c0-0.3-0.2-0.6-0.4-0.9l0.4-0.7c0.4,0.4,0.6,0.8,0.7,1.2c0.1,0.6,0,1.1-0.4,1.7c-0.4,0.6-0.9,1-1.6,1.1
		c-0.7,0.1-1.3,0-2.1-0.5c-0.6-0.4-1.1-0.9-1.3-1.6c-0.2-0.7-0.1-1.3,0.3-1.9C277.2,133.1,277.8,132.7,278.5,132.6z M277.2,135.3
		c0.1,0.4,0.4,0.7,0.8,1.1l1.7-2.7c-1-0.5-1.7-0.3-2.3,0.5C277.1,134.5,277.1,134.9,277.2,135.3z"/>
	<path id="XMLID_76_" d="M277.3,127.4l0.6,0.4l-0.9,1.4l6.8,4.3l0.9-1.4l0.6,0.4l-1.3,2.1l-7.9-5L277.3,127.4z"/>
	<path id="XMLID_78_" d="M282,124c0.7,0,1.6,0.3,2.5,0.9s1.5,1.2,1.9,1.9c0.4,0.8,0.4,1.5-0.1,2.2c-0.5,0.7-1.1,1.1-2,1
		c-0.7,0-1.6-0.3-2.5-0.9s-1.5-1.2-1.9-1.9c-0.4-0.8-0.4-1.5,0.1-2.2C280.5,124.3,281.1,124,282,124z M280.7,127.1
		c0.3,0.4,0.8,0.9,1.5,1.3c0.7,0.4,1.3,0.7,1.8,0.8c0.7,0.1,1.3-0.1,1.6-0.6s0.3-1.1-0.1-1.7c-0.3-0.4-0.8-0.9-1.5-1.3
		c-0.7-0.4-1.3-0.7-1.8-0.8c-0.7-0.1-1.3,0.1-1.6,0.6S280.3,126.5,280.7,127.1z"/>
	<path id="XMLID_81_" d="M282.3,119.5l7.9,5l-1.3,2.1l-0.6-0.4l0.9-1.4l-6.8-4.3l-0.9,1.4l-0.6-0.4L282.3,119.5z"/>
</g>
<line id="XMLID_39_" class="st1" x1="65.5" y1="168.6" x2="111" y2="198.6"/>
<g id="XMLID_38_">
	<path id="XMLID_69_" d="M116.8,205.1h2.8v1.5h-2.8v7.2c0,0.4,0.1,0.7,0.2,0.9c0.2,0.2,0.4,0.3,0.8,0.3h1.5v1.5h-1.7
		c-0.9,0-1.6-0.2-2-0.7c-0.4-0.4-0.5-1.1-0.5-1.9v-7.2h-2.3v-1.5h2.3v-2.9l1.7-0.7V205.1z"/>
</g>
<g id="XMLID_37_">
	<path id="XMLID_57_" d="M88.7,172.8l0.5-0.7l0.7,0.4l-2.7,4c-0.9,1.4-2,1.6-3.3,0.7c-0.6-0.4-0.9-0.8-1.1-1.2
		c-0.1-0.4-0.1-0.9,0.1-1.4l0.7,0.4c-0.1,0.3-0.2,0.6-0.1,0.9c0.1,0.3,0.3,0.5,0.7,0.8c0.9,0.6,1.6,0.4,2.3-0.5l0.5-0.8
		c-0.7,0.4-1.4,0.3-2-0.1c-0.6-0.4-0.9-0.9-1-1.6c-0.1-0.6,0.1-1.2,0.5-1.9c0.4-0.6,0.9-1,1.5-1.2c0.6-0.2,1.2-0.1,1.8,0.3
		C88.5,171.5,88.8,172.1,88.7,172.8z M86.2,171.4c-0.4,0.1-0.8,0.4-1.1,0.9c-0.3,0.4-0.5,0.9-0.4,1.3c0,0.5,0.2,0.9,0.7,1.2
		c0.4,0.3,0.9,0.4,1.3,0.2c0.4-0.1,0.8-0.4,1.1-0.9c0.3-0.5,0.5-0.9,0.4-1.4c0-0.5-0.3-0.9-0.7-1.1
		C87.1,171.3,86.7,171.3,86.2,171.4z"/>
	<path id="XMLID_60_" d="M92,174l1.1,0.7l-0.4,0.6l-1.1-0.7l-1.8,2.7c-0.1,0.2-0.2,0.3-0.1,0.4c0,0.1,0.1,0.2,0.2,0.3l0.5,0.4
		l-0.4,0.6l-0.6-0.4c-0.3-0.2-0.5-0.5-0.6-0.8c0-0.3,0.1-0.5,0.3-0.9l1.8-2.7l-0.9-0.6l0.4-0.6l0.9,0.6l0.8-1.1l0.8,0.2L92,174z"/>
	<path id="XMLID_62_" d="M97.4,174l-0.4,0.6l-1.4-1l-4.5,6.6l1.4,1l-0.4,0.6l-2-1.4l5.2-7.7L97.4,174z"/>
	<path id="XMLID_64_" d="M100.7,178.7c0,0.7-0.4,1.6-1,2.5c-0.6,0.9-1.2,1.5-1.9,1.8c-0.8,0.4-1.5,0.3-2.2-0.1c-0.7-0.5-1-1.2-1-2
		c0-0.7,0.4-1.6,1-2.5c0.6-0.9,1.2-1.5,1.9-1.8c0.8-0.4,1.5-0.3,2.2,0.1C100.4,177.2,100.8,177.8,100.7,178.7z M97.6,177.4
		c-0.4,0.3-0.9,0.8-1.4,1.5c-0.5,0.7-0.8,1.3-0.9,1.8c-0.1,0.7,0,1.3,0.6,1.6c0.5,0.4,1.1,0.3,1.7-0.1c0.4-0.3,0.9-0.8,1.4-1.5
		c0.5-0.7,0.8-1.3,0.9-1.8c0.2-0.7,0-1.3-0.6-1.6C98.8,176.9,98.2,176.9,97.6,177.4z"/>
	<path id="XMLID_67_" d="M105.2,179.2l-5.2,7.7l-2-1.4l0.4-0.6l1.4,1l4.5-6.6l-1.4-1l0.4-0.6L105.2,179.2z"/>
</g>
<g id="XMLID_40_">
	<path id="XMLID_55_" d="M200.8,205.1h2.8v1.5h-2.8v7.2c0,0.4,0.1,0.7,0.2,0.9c0.2,0.2,0.4,0.3,0.8,0.3h1.5v1.5h-1.7
		c-0.9,0-1.6-0.2-2-0.7c-0.4-0.4-0.5-1.1-0.5-1.9v-7.2h-2.3v-1.5h2.3v-2.9l1.7-0.7V205.1z"/>
</g>
<g id="XMLID_36_">
	<path id="XMLID_43_" d="M173.9,184.2l0.7-0.6l0.5,0.6l-3.6,3.1c-1.3,1.1-2.4,1-3.4-0.2c-0.5-0.5-0.7-1-0.7-1.5
		c0-0.5,0.1-0.9,0.5-1.3l0.5,0.6c-0.2,0.3-0.3,0.6-0.3,0.8c0,0.3,0.2,0.6,0.5,1c0.7,0.8,1.5,0.8,2.3,0.1l0.7-0.6
		c-0.8,0.2-1.4-0.1-1.9-0.6c-0.5-0.5-0.7-1.1-0.6-1.8c0.1-0.6,0.4-1.2,1-1.7c0.6-0.5,1.2-0.7,1.8-0.7c0.7,0,1.2,0.3,1.7,0.8
		C174,182.8,174.1,183.5,173.9,184.2z M171.9,182.2c-0.4,0-0.9,0.2-1.3,0.6c-0.4,0.4-0.7,0.7-0.8,1.1c-0.1,0.5,0,0.9,0.4,1.3
		c0.3,0.4,0.7,0.6,1.2,0.6c0.4,0,0.9-0.2,1.3-0.6c0.4-0.4,0.7-0.8,0.8-1.2c0.1-0.5,0-0.9-0.4-1.3
		C172.7,182.3,172.3,182.2,171.9,182.2z"/>
	<path id="XMLID_46_" d="M176.8,186.2l0.8,1l-0.5,0.4l-0.8-1l-2.5,2.1c-0.1,0.1-0.2,0.2-0.2,0.4c0,0.1,0,0.2,0.1,0.4l0.4,0.5
		l-0.5,0.4l-0.5-0.6c-0.3-0.3-0.4-0.6-0.3-0.9c0-0.3,0.2-0.5,0.5-0.8l2.5-2.1l-0.7-0.8l0.5-0.4l0.7,0.8l1-0.9l0.8,0.4L176.8,186.2z"
		/>
	<path id="XMLID_48_" d="M182,187.6l-0.5,0.4l-1.1-1.3l-6.1,5.2l1.1,1.3l-0.5,0.4l-1.6-1.9l7.1-6.1L182,187.6z"/>
	<path id="XMLID_50_" d="M183.9,193c-0.2,0.7-0.8,1.4-1.6,2.1c-0.8,0.7-1.6,1.1-2.3,1.2c-0.9,0.2-1.6-0.1-2.1-0.7
		c-0.6-0.7-0.7-1.4-0.4-2.2c0.2-0.7,0.8-1.4,1.6-2.1c0.8-0.7,1.6-1.1,2.3-1.2c0.9-0.2,1.6,0.1,2.1,0.7
		C184,191.5,184.2,192.2,183.9,193z M181.3,190.9c-0.5,0.2-1.1,0.5-1.7,1.1c-0.6,0.5-1.1,1-1.3,1.5c-0.3,0.7-0.3,1.2,0.1,1.7
		c0.4,0.5,1,0.6,1.7,0.4c0.5-0.2,1.1-0.5,1.7-1.1c0.6-0.5,1.1-1.1,1.3-1.5c0.3-0.7,0.3-1.2-0.1-1.7S182,190.7,181.3,190.9z"/>
	<path id="XMLID_53_" d="M188.1,194.7l-7.1,6.1l-1.6-1.9l0.5-0.4l1.1,1.3l6.1-5.2l-1.1-1.3l0.5-0.4L188.1,194.7z"/>
</g>
<line id="XMLID_41_" class="st0" x1="174.3" y1="173" x2="196.9" y2="200"/>
<g id="XMLID_42_">
</g>
<g id="XMLID_205_">
</g>
<g id="XMLID_206_">
</g>
<g id="XMLID_207_">
</g>
<g id="XMLID_208_">
</g>
<g id="XMLID_209_">
</g>
</svg>
